<svg width="40" height="65" viewBox="0 0 40 65" fill="none" xmlns="http://www.w3.org/2000/svg">
<circle cx="20" cy="45" r="20" fill="url(#paint0_linear_9_52)"/>
<path d="M25.456 44.642H14.534C13.981 44.642 13.534 45.09 13.534 45.642C13.534 46.194 13.981 46.642 14.534 46.642H25.457C26.01 46.642 26.457 46.194 26.457 45.642C26.457 45.09 26.009 44.642 25.456 44.642Z" fill="black"/>
<path d="M10.853 50H29.138C31.813 50 33.99 47.823 33.99 45.148V4.852C33.99 2.176 31.813 0 29.138 0H10.853C8.177 0 6 2.176 6 4.852V45.148C6 47.823 8.177 50 10.853 50ZM25.243 2L24.362 3.386H15.629L14.747 2H25.243ZM8 4.852C8 3.279 9.28 2 10.853 2H12.377L14.236 4.923C14.42 5.212 14.738 5.386 15.08 5.386H24.911C25.253 5.386 25.571 5.211 25.755 4.923L27.613 2H29.138C30.71 2 31.99 3.279 31.99 4.852V45.148C31.99 46.721 30.711 48 29.138 48H10.853C9.28 48 8 46.721 8 45.148V4.852Z" fill="black"/>
<path d="M19.666 35.175C19.772 35.212 19.884 35.231 19.995 35.231C20.106 35.231 20.218 35.212 20.324 35.175C32.508 30.924 29.734 17.697 29.705 17.565C29.639 17.267 29.44 17.015 29.166 16.881C23.338 14.046 16.651 14.047 10.823 16.881C10.549 17.015 10.35 17.266 10.284 17.565C10.255 17.697 7.483 30.923 19.666 35.175ZM12.152 18.466C17.166 16.185 22.829 16.187 27.84 18.467C28.198 20.673 29.079 29.776 19.995 33.167C10.942 29.786 11.799 20.675 12.152 18.466Z" fill="black"/>
<path d="M18.388 27.306C18.583 27.501 18.839 27.599 19.095 27.599C19.351 27.599 19.607 27.501 19.802 27.306L24.701 22.407C25.092 22.016 25.092 21.384 24.701 20.993C24.31 20.602 23.678 20.602 23.287 20.993L19.095 25.185L17.54 23.631C17.149 23.24 16.517 23.24 16.126 23.631C15.735 24.022 15.735 24.655 16.126 25.045L18.388 27.306Z" fill="#FF6534"/>
<defs>
<linearGradient id="paint0_linear_9_52" x1="20" y1="6.42857" x2="20" y2="59" gradientUnits="userSpaceOnUse">
<stop stop-color="#FF6534" stop-opacity="0.57"/>
<stop offset="1" stop-color="#FF6534" stop-opacity="0"/>
</linearGradient>
</defs>
</svg>
