<svg width="43" height="60" viewBox="0 0 43 60" fill="none" xmlns="http://www.w3.org/2000/svg">
<circle cx="23" cy="40" r="20" fill="url(#paint0_linear_9_50)"/>
<path d="M28.207 49.1201C28.3616 48.8547 28.3646 48.5294 28.2126 48.2634L25.6402 43.7622L27.1778 40.9271L30.401 41.0414L32.9735 45.5426C33.1254 45.8085 33.4079 45.9722 33.7144 45.9727C34.0204 45.9721 34.3029 45.8079 34.4548 45.5426C34.7887 44.9566 35.0422 44.338 35.2159 43.7013C35.7641 41.6906 35.5122 39.5059 34.4602 37.6652C33.057 35.2099 30.4982 33.7123 27.6927 33.6703L15.6844 12.6585C17.0732 10.2202 17.0817 7.2554 15.6777 4.79988C14.2924 2.376 11.6904 0.845406 8.88699 0.805771C8.58072 0.800927 8.29578 0.960992 8.1406 1.22538C7.98603 1.49082 7.98305 1.81616 8.13504 2.08211L10.7075 6.5833L9.16987 9.41847L5.94662 9.30414L3.37336 4.80272C3.22137 4.53678 2.93895 4.37315 2.63239 4.37264C2.32642 4.37319 2.04387 4.53744 1.89199 4.80273C0.502065 7.23888 0.501109 10.257 1.88659 12.6801C3.28979 15.1354 5.8486 16.633 8.65407 16.675L20.664 37.6873C19.278 40.1254 19.2676 43.0906 20.6708 45.5459C22.0561 47.9698 24.658 49.5003 27.4617 49.5392C27.7671 49.5438 28.0521 49.3837 28.207 49.1201ZM22.1513 44.6998C20.9803 42.6507 21.0621 40.1496 22.367 38.1711C22.545 37.9041 22.5544 37.5584 22.3955 37.279L9.88632 15.3908C9.72655 15.1113 9.42431 14.9458 9.10331 14.9625C6.7365 15.0817 4.53999 13.8827 3.36896 11.8336C2.55434 10.4094 2.35164 8.72165 2.75939 7.16142L4.70293 10.5622C4.84953 10.8187 5.11811 10.9812 5.41308 10.9918L9.63868 11.1417C9.96177 11.1529 10.2641 10.9808 10.4187 10.6959L12.4345 6.97908C12.5743 6.71932 12.5714 6.40565 12.4248 6.14913L10.4813 2.74836C12.0331 3.19006 13.3828 4.22098 14.1974 5.64517C15.3692 7.69443 15.2855 10.196 13.9819 12.173C13.8031 12.4398 13.7934 12.7863 13.9532 13.0659L26.4624 34.9541C26.6221 35.2337 26.9244 35.3992 27.2462 35.3826C29.6122 35.2632 31.8089 36.4614 32.9799 38.5105C33.7943 39.9355 33.9975 41.6216 33.5895 43.1827L31.646 39.7819C31.4994 39.5254 31.2308 39.3629 30.9358 39.3523L26.7102 39.2024C26.3871 39.1912 26.0848 39.3633 25.9302 39.6482L23.9144 43.365C23.8826 43.4235 23.8587 43.4851 23.8417 43.5476C23.7829 43.7631 23.8102 43.9969 23.9241 44.195L25.8677 47.5957C24.3162 47.1559 22.9651 46.1237 22.1513 44.6998Z" fill="black"/>
<circle cx="30.5" cy="5.5" r="2.5" fill="#FF6534"/>
<defs>
<linearGradient id="paint0_linear_9_50" x1="23" y1="1.42857" x2="23" y2="54" gradientUnits="userSpaceOnUse">
<stop stop-color="#FF6534" stop-opacity="0.57"/>
<stop offset="1" stop-color="#FF6534" stop-opacity="0"/>
</linearGradient>
</defs>
</svg>
