<svg width="40" height="65" viewBox="0 0 40 65" fill="none" xmlns="http://www.w3.org/2000/svg">
<circle cx="20" cy="45" r="20" fill="url(#paint0_linear_9_54)"/>
<path d="M25.456 44.642H14.533C13.981 44.642 13.533 45.09 13.533 45.642C13.533 46.194 13.981 46.642 14.533 46.642H25.456C26.008 46.642 26.456 46.194 26.456 45.642C26.456 45.09 26.008 44.642 25.456 44.642Z" fill="black"/>
<path d="M29.137 0H10.852C8.177 0 6 2.177 6 4.852V45.148C6 47.823 8.177 50 10.852 50H29.137C31.812 50 33.989 47.824 33.989 45.148V4.852C33.988 2.177 31.812 0 29.137 0ZM25.242 2L25.204 2.061C24.676 2.891 23.774 3.387 22.79 3.387H17.199C16.215 3.387 15.312 2.891 14.784 2.061L14.746 2H25.242ZM31.988 45.148C31.988 46.72 30.709 48 29.136 48H10.852C9.279 48 8 46.721 8 45.148V4.852C8 3.279 9.279 2 10.852 2H12.376L13.097 3.134C13.993 4.544 15.527 5.386 17.199 5.386H22.79C24.461 5.386 25.995 4.544 26.892 3.134L27.612 2H29.137C30.709 2 31.989 3.279 31.989 4.852L31.988 45.148Z" fill="black"/>
<path d="M14.591 18.565C14.591 19.117 15.039 19.565 15.591 19.565C16.143 19.565 16.591 19.117 16.591 18.565C16.591 17.433 18.414 15.609 19.547 15.609C20.099 15.609 20.547 15.161 20.547 14.609C20.547 14.057 20.099 13.609 19.547 13.609C18.414 13.609 16.591 11.786 16.591 10.653C16.591 10.101 16.143 9.653 15.591 9.653C15.039 9.653 14.591 10.101 14.591 10.653C14.591 11.785 12.768 13.609 11.635 13.609C11.083 13.609 10.635 14.057 10.635 14.609C10.635 15.161 11.083 15.609 11.635 15.609C12.768 15.61 14.591 17.433 14.591 18.565ZM15.591 13.224C15.98 13.744 16.458 14.221 16.978 14.61C16.458 14.999 15.98 15.477 15.591 15.996C15.202 15.476 14.724 14.999 14.205 14.61C14.725 14.221 15.202 13.743 15.591 13.224Z" fill="#FF6534"/>
<path d="M29.758 27.367C28.18 27.367 25.737 24.924 25.737 23.346C25.737 22.794 25.289 22.346 24.737 22.346C24.185 22.346 23.737 22.794 23.737 23.346C23.737 24.924 21.295 27.367 19.716 27.367C19.164 27.367 18.716 27.815 18.716 28.367C18.716 28.919 19.164 29.367 19.716 29.367C21.294 29.367 23.737 31.809 23.737 33.388C23.737 33.94 24.185 34.388 24.737 34.388C25.289 34.388 25.737 33.94 25.737 33.388C25.737 31.81 28.179 29.367 29.758 29.367C30.31 29.367 30.758 28.919 30.758 28.367C30.758 27.815 30.31 27.367 29.758 27.367ZM24.737 30.568C24.162 29.718 23.386 28.943 22.536 28.367C23.386 27.792 24.161 27.016 24.737 26.166C25.312 27.016 26.088 27.791 26.938 28.367C26.088 28.942 25.313 29.718 24.737 30.568Z" fill="black"/>
<defs>
<linearGradient id="paint0_linear_9_54" x1="20" y1="6.42857" x2="20" y2="59" gradientUnits="userSpaceOnUse">
<stop stop-color="#FF6534" stop-opacity="0.57"/>
<stop offset="1" stop-color="#FF6534" stop-opacity="0"/>
</linearGradient>
</defs>
</svg>
