<svg width="48" height="65" viewBox="0 0 48 65" fill="none" xmlns="http://www.w3.org/2000/svg">
<circle cx="24" cy="45" r="20" fill="url(#paint0_linear_9_53)"/>
<path d="M24 22C26.76 22 29 19.76 29 17C29 14.24 26.76 12 24 12C21.24 12 19 14.24 19 17C19 19.76 21.24 22 24 22ZM24 14C25.65 14 27 15.35 27 17C27 18.65 25.65 20 24 20C22.35 20 21 18.65 21 17C21 15.35 22.35 14 24 14Z" fill="#FF6534"/>
<path d="M26.25 23H21.75C18.03 23 15 26.03 15 29.75V32C15 32.55 15.45 33 16 33H32C32.55 33 33 32.55 33 32V29.75C33 26.03 29.97 23 26.25 23ZM31 31H17V29.75C17 27.13 19.13 25 21.75 25H26.25C28.87 25 31 27.13 31 29.75V31Z" fill="black"/>
<path d="M24 8C15.18 8 8 15.18 8 24C8 32.82 15.18 40 24 40C32.82 40 40 32.82 40 24C40 15.18 32.82 8 24 8ZM24 38C16.28 38 10 31.72 10 24C10 16.28 16.28 10 24 10C31.72 10 38 16.28 38 24C38 31.72 31.72 38 24 38Z" fill="black"/>
<path d="M47 23H44.95C44.44 12.22 35.78 3.56 25 3.05V1C25 0.45 24.55 0 24 0C23.45 0 23 0.45 23 1V3.05C12.22 3.56 3.56 12.22 3.05 23H1C0.45 23 0 23.45 0 24C0 24.55 0.45 25 1 25H3.05C3.56 35.78 12.22 44.44 23 44.95V47C23 47.55 23.45 48 24 48C24.55 48 25 47.55 25 47V44.95C35.78 44.44 44.44 35.78 44.95 25H47C47.55 25 48 24.55 48 24C48 23.45 47.55 23 47 23ZM25 42.95V42C25 41.45 24.55 41 24 41C23.45 41 23 41.45 23 42V42.95C13.32 42.44 5.56 34.68 5.05 25H6C6.55 25 7 24.55 7 24C7 23.45 6.55 23 6 23H5.05C5.56 13.32 13.32 5.56 23 5.05V6C23 6.55 23.45 7 24 7C24.55 7 25 6.55 25 6V5.05C34.68 5.56 42.44 13.32 42.95 23H42C41.45 23 41 23.45 41 24C41 24.55 41.45 25 42 25H42.95C42.44 34.68 34.68 42.44 25 42.95Z" fill="black"/>
<defs>
<linearGradient id="paint0_linear_9_53" x1="24" y1="6.42857" x2="24" y2="59" gradientUnits="userSpaceOnUse">
<stop stop-color="#FF6534" stop-opacity="0.57"/>
<stop offset="1" stop-color="#FF6534" stop-opacity="0"/>
</linearGradient>
</defs>
</svg>
